<svg width="707" height="439" viewBox="0 0 707 439" fill="none" xmlns="http://www.w3.org/2000/svg">
<path d="M84.8279 119.937C142.875 71.2708 238.521 90.7812 305.713 106.016C346.521 115.266 387.771 125.115 429.807 125.974C468.885 126.771 498.875 115.74 533.682 100.099C555.542 90.276 571.708 74.7552 592.338 63.1979C613.614 51.276 635.984 40.9271 659.974 35.9062C701.229 27.2708 734.443 39.2291 753.489 76.8021C771.781 112.885 775.13 155.214 772.708 195.005C771.219 219.469 767.146 244.464 760.021 268.417C737.083 345.495 665.932 398.146 585.505 398.146H38.5155C20.9738 377.599 9.8905 353.74 4.21344 327.411C-12.2241 251.187 25.0728 170.036 84.8279 119.937Z" fill="url(#paint0_radial_3_45)"/>
<path d="M443.187 416.896L364.541 435.125" stroke="#EECFF8" stroke-width="0.385417" stroke-miterlimit="10"/>
<path d="M360.375 435.125L387.979 420.542" stroke="#EECFF8" stroke-width="0.385417" stroke-miterlimit="10"/>
<path d="M405.687 436.167L487.458 438.25" stroke="#EECFF8" stroke-width="0.385417" stroke-miterlimit="10"/>
<path d="M383.724 436.188C382.718 436.188 382.718 434.625 383.724 434.625C384.729 434.625 384.734 436.188 383.724 436.188Z" fill="#EECFF8"/>
<path d="M355.302 429.609C354.297 429.609 354.297 428.047 355.302 428.047C356.307 428.047 356.312 429.609 355.302 429.609Z" fill="#EECFF8"/>
<path d="M355.042 438.026C354.036 438.026 354.036 436.463 355.042 436.463C356.047 436.463 356.047 438.026 355.042 438.026Z" fill="#EECFF8"/>
<path d="M503.463 437.24C502.458 437.24 502.458 435.677 503.463 435.677C504.469 435.677 504.469 437.24 503.463 437.24Z" fill="#EECFF8"/>
<path d="M430.827 405.922C429.822 405.922 429.822 404.359 430.827 404.359C431.832 404.359 431.838 405.922 430.827 405.922Z" fill="#EECFF8"/>
<path d="M465.041 390.135C464.036 390.135 464.036 388.573 465.041 388.573C466.047 388.573 466.047 390.135 465.041 390.135Z" fill="#EECFF8"/>
<path d="M238.5 435.385H171.833" stroke="#EECFF8" stroke-width="0.385417" stroke-miterlimit="10"/>
<path d="M160.896 435.385H25.4789" stroke="#EECFF8" stroke-width="0.385417" stroke-miterlimit="10"/>
<path d="M201.781 428.615H146.573" stroke="#EECFF8" stroke-width="0.385417" stroke-miterlimit="10"/>
<path d="M97.4893 403.469C97.4893 403.469 95.7392 406.385 85.8225 406.969C75.9058 407.552 75.9059 416.885 70.0725 416.885C64.2392 416.885 67.1558 411.635 69.4892 409.302C71.8225 406.969 76.4892 402.885 76.4892 402.885C76.4892 402.885 84.0725 401.135 86.4059 398.219C88.7392 395.302 95.1559 392.969 95.1559 392.969L97.4893 403.469Z" fill="#FB8F8F"/>
<path d="M97.4893 403.469C97.4893 403.469 95.7392 406.385 85.8225 406.969C75.9058 407.552 75.9059 416.885 70.0725 416.885C64.2392 416.885 67.1558 411.635 69.4892 409.302C71.8225 406.969 76.4892 402.885 76.4892 402.885C76.4892 402.885 84.0725 401.135 86.4059 398.219C88.7392 395.302 95.1559 392.969 95.1559 392.969L97.4893 403.469Z" fill="url(#paint1_radial_3_45)"/>
<path d="M97.4893 403.469C97.4893 403.469 95.7392 406.385 85.8225 406.969C75.9058 407.552 75.9059 416.885 70.0725 416.885C64.2392 416.885 67.1558 411.635 69.4892 409.302C71.8225 406.969 76.4892 402.885 76.4892 402.885C76.4892 402.885 84.0725 401.135 86.4059 398.219C88.7392 395.302 95.1559 392.969 95.1559 392.969L97.4893 403.469Z" fill="url(#paint2_radial_3_45)"/>
<path d="M160.495 391.214C160.495 391.214 162.828 397.63 168.078 404.047C168.078 404.047 170.995 405.797 166.328 408.714C161.661 411.63 155.245 414.547 154.661 419.797C154.661 419.797 154.078 422.13 156.995 422.714C159.911 423.297 164.578 420.38 164.578 420.38C164.578 420.38 169.245 415.714 173.911 413.38C178.578 411.047 183.245 408.714 183.245 405.797C183.245 402.88 177.995 394.13 177.995 394.13C177.995 394.13 165.161 382.464 160.495 391.214Z" fill="#FB8F8F"/>
<path d="M160.495 391.214C160.495 391.214 162.828 397.63 168.078 404.047C168.078 404.047 170.995 405.797 166.328 408.714C161.661 411.63 155.245 414.547 154.661 419.797C154.661 419.797 154.078 422.13 156.995 422.714C159.911 423.297 164.578 420.38 164.578 420.38C164.578 420.38 169.245 415.714 173.911 413.38C178.578 411.047 183.245 408.714 183.245 405.797C183.245 402.88 177.995 394.13 177.995 394.13C177.995 394.13 165.161 382.464 160.495 391.214Z" fill="url(#paint3_radial_3_45)"/>
<path d="M160.495 391.214C160.495 391.214 162.828 397.63 168.078 404.047C168.078 404.047 170.995 405.797 166.328 408.714C161.661 411.63 155.245 414.547 154.661 419.797C154.661 419.797 154.078 422.13 156.995 422.714C159.911 423.297 164.578 420.38 164.578 420.38C164.578 420.38 169.245 415.714 173.911 413.38C178.578 411.047 183.245 408.714 183.245 405.797C183.245 402.88 177.995 394.13 177.995 394.13C177.995 394.13 165.161 382.464 160.495 391.214Z" fill="url(#paint4_radial_3_45)"/>
<path d="M130.229 367.698C138.682 368.422 147.187 367.302 155.255 364.667C164.447 361.661 181.234 357.687 196.671 362.047C209.635 365.703 217.109 373.338 225.239 379.448C233.724 385.818 244.348 388.641 254.895 387.469L261.703 386.713C262.328 386.646 262.697 387.396 262.26 387.849C260.203 389.969 253.89 393.656 235.76 390.635C211.255 386.552 203.088 376.052 203.088 376.052C203.088 376.052 202.505 386.552 205.421 391.802C208.338 397.052 216.505 405.802 216.505 405.802L210.088 422.719C210.088 422.719 206.005 424.469 200.171 422.719L198.421 420.969C198.421 420.969 197.838 416.302 201.921 415.719C201.921 415.719 204.838 414.552 203.088 409.302C201.338 404.052 198.421 402.302 185.588 402.302C172.755 402.302 166.916 393.552 166.916 393.552C166.916 393.552 155.833 394.135 148.244 400.552C140.661 406.969 119.656 414.552 107.406 410.469C107.406 410.469 102.156 415.719 101.572 419.802C100.989 423.885 100.406 426.219 93.989 425.635C93.989 425.635 89.3223 425.052 90.489 421.552C91.6556 418.052 94.5723 421.552 95.739 416.885C96.9057 412.219 97.489 406.969 97.489 406.969C97.489 406.969 89.3223 404.052 90.489 390.052C91.6556 376.052 85.8224 368.463 77.6557 369.63C69.489 370.797 61.3223 371.963 61.3223 371.963C61.3223 371.963 54.3223 374.297 46.7389 369.047C39.1556 363.797 37.989 360.88 37.989 360.88L38.5723 357.963C38.5723 357.963 58.4108 350.38 60.7442 348.63C63.0775 346.88 71.2442 339.297 71.2442 339.297C71.2442 339.297 93.4161 339.297 98.6661 344.547C103.916 349.797 111.499 362.63 119.088 365.552C121.947 366.651 125.994 367.338 130.229 367.698Z" fill="#FB8F8F"/>
<path d="M111.052 359.417C111.052 359.417 100.692 372.833 86.6924 374L90.0102 380.276C90.0102 380.276 107.109 376.917 115 363.109L111.052 359.417Z" fill="url(#paint5_radial_3_45)"/>
<path d="M130.229 367.698C138.682 368.422 147.187 367.302 155.255 364.667C164.447 361.661 181.234 357.687 196.671 362.047C209.619 365.698 217.088 373.318 225.208 379.422C233.708 385.812 244.369 388.641 254.942 387.463L261.703 386.713C262.328 386.646 262.697 387.396 262.26 387.849C260.203 389.969 253.89 393.656 235.76 390.635C211.255 386.552 203.088 376.052 203.088 376.052C203.088 376.052 202.505 386.552 205.421 391.802C208.338 397.052 216.505 405.802 216.505 405.802L210.088 422.719C210.088 422.719 206.005 424.469 200.171 422.719L198.421 420.969C198.421 420.969 197.838 416.302 201.921 415.719C201.921 415.719 204.838 414.552 203.088 409.302C201.338 404.052 198.421 402.302 185.588 402.302C172.755 402.302 166.916 393.552 166.916 393.552C166.916 393.552 155.833 394.135 148.244 400.552C140.661 406.969 119.656 414.552 107.406 410.469C107.406 410.469 102.156 415.719 101.572 419.802C100.989 423.885 100.406 426.219 93.989 425.635C93.989 425.635 89.3223 425.052 90.489 421.552C91.6556 418.052 94.5723 421.552 95.739 416.885C96.9057 412.219 97.489 406.969 97.489 406.969C97.489 406.969 89.3223 404.052 90.489 390.052C91.6556 376.052 85.8224 368.463 77.6557 369.63C69.489 370.797 61.3223 371.963 61.3223 371.963C61.3223 371.963 54.3223 374.297 46.7389 369.047C39.1556 363.797 37.989 360.88 37.989 360.88L38.5723 357.963C38.5723 357.963 58.4108 350.38 60.7442 348.63C63.0775 346.88 71.2442 339.297 71.2442 339.297C71.2442 339.297 93.4161 339.297 98.6661 344.547C103.916 349.797 111.499 362.63 119.088 365.552C121.947 366.651 125.994 367.338 130.229 367.698Z" fill="url(#paint6_radial_3_45)"/>
<path d="M185.583 402.302C179.599 402.302 175.135 400.401 172.078 398.364C173.667 397.271 175.375 396.344 177.224 395.635C182.328 393.667 188.047 393.354 193.463 393.042C198.401 392.76 203.125 392.979 207.489 394.979C211.078 399.974 216.51 405.797 216.51 405.797L210.094 422.713C210.094 422.713 206.01 424.463 200.177 422.713L198.427 420.963C198.427 420.963 197.844 416.297 201.927 415.713C201.927 415.713 204.844 414.547 203.094 409.297C201.344 404.047 198.417 402.302 185.583 402.302Z" fill="url(#paint7_radial_3_45)"/>
<path d="M95.7393 416.885C96.1143 415.385 96.4268 413.833 96.682 412.406C99.3174 412.208 101.942 412.927 103.989 414.604C102.854 416.234 101.817 418.12 101.578 419.802C100.994 423.885 100.411 426.219 93.9945 425.635C93.9945 425.635 89.3278 425.052 90.4945 421.552C91.6507 418.052 94.5726 421.552 95.7393 416.885Z" fill="url(#paint8_radial_3_45)"/>
<path d="M60.7344 348.625C61.0886 348.359 61.5782 347.958 62.1511 347.474C62.922 347.687 63.6876 347.911 64.448 348.156C71.2761 350.365 78.3646 353.963 81.7813 360.604C83.4323 363.823 84.1354 367.385 84.4375 371C82.4948 369.75 80.1876 369.271 77.6563 369.63C69.4897 370.797 61.323 371.963 61.323 371.963C61.323 371.963 54.323 374.297 46.7397 369.047C39.1564 363.797 37.9897 360.88 37.9897 360.88L38.5731 357.963C38.5627 357.958 58.4011 350.375 60.7344 348.625Z" fill="url(#paint9_radial_3_45)"/>
<path d="M72.4999 346.318C72.6666 347.234 73.1092 348.073 73.6978 348.797C75.1978 350.635 78.427 356.078 77.0624 367.875C75.3124 383.042 91.0624 384.208 93.3957 374.292C95.0884 367.094 94.3228 357.437 93.7759 352.682C93.5623 350.844 92.4581 349.239 90.8227 348.375C84.953 345.266 71.1249 338.667 72.4999 346.318Z" fill="url(#paint10_radial_3_45)"/>
<path d="M66.5675 347.458H65.4008L61.3176 348.625L59.5675 351.542L63.0675 355.042L66.5675 356.208C70.0675 352.125 66.5675 347.458 66.5675 347.458Z" fill="url(#paint11_radial_3_45)"/>
<path d="M37.9791 360.875L38.5624 357.958C38.5624 357.958 39.2707 357.688 40.4374 357.234C40.4374 357.234 44.9788 358.542 44.3955 360.875C44.0153 362.401 41.3905 362.927 39.6197 363.109C38.2916 361.651 37.9791 360.875 37.9791 360.875Z" fill="url(#paint12_radial_3_45)"/>
<path d="M65.9841 354.167C65.1768 354.167 64.5258 353.122 64.5258 351.833C64.5258 350.545 65.1768 349.5 65.9841 349.5C66.7914 349.5 67.4424 350.545 67.4424 351.833C67.4424 353.122 66.7914 354.167 65.9841 354.167Z" fill="url(#paint13_radial_3_45)"/>
<path d="M63.3591 367.589C63.3591 367.589 61.6092 370.505 56.3591 371.672" stroke="#0061FE" stroke-width="0.385417" stroke-miterlimit="10"/>
<path d="M73.5674 366.714C75.7758 361.672 75.8904 355.943 73.5674 348.62C73.6143 348.677 73.6508 348.745 73.6977 348.802C75.1977 350.641 78.4269 356.083 77.0623 367.88C76.9894 368.526 76.9582 369.135 76.9426 369.729C75.0363 370 73.1456 370.271 71.3695 370.526C72.5258 369.068 73.2133 367.516 73.5674 366.714Z" fill="url(#paint14_radial_3_45)"/>
<path d="M107.406 410.469C110.323 406.969 110.323 404.635 110.323 404.635C108.573 397.635 110.323 395.302 110.323 395.302C110.323 401.135 113.239 404.052 113.239 404.052C113.239 404.052 127.823 409.885 139.495 397.635C151.161 385.385 152.328 384.219 152.328 384.219C160.494 384.219 166.911 393.552 166.911 393.552L166.276 393.604C163.828 393.838 154.75 395.047 148.239 400.552C140.661 406.969 119.656 414.552 107.406 410.469Z" fill="url(#paint15_radial_3_45)"/>
<path d="M49.281 364.521C48.5258 364.521 48.5258 363.349 49.281 363.349C50.031 363.349 50.0362 364.521 49.281 364.521Z" fill="#0061FE"/>
<path d="M51.4894 368.01C50.9843 368.01 50.9843 367.229 51.4894 367.229C51.9944 367.229 51.9944 368.01 51.4894 368.01Z" fill="#0061FE"/>
<path d="M53.4059 365.505C52.9005 365.505 52.9005 364.724 53.4059 364.724C53.906 364.724 53.9113 365.505 53.4059 365.505Z" fill="#0061FE"/>
<path d="M57.5312 365.161C57.2814 365.161 57.2814 364.771 57.5312 364.771C57.7862 364.771 57.7862 365.161 57.5312 365.161Z" fill="#0061FE"/>
<path d="M48.8383 366.932C48.5883 366.932 48.5883 366.542 48.8383 366.542C49.0884 366.542 49.0884 366.932 48.8383 366.932Z" fill="#0061FE"/>
<path d="M115.864 361.75C114.578 361.75 113.531 360.705 113.531 359.417C113.531 358.128 114.578 357.083 115.864 357.083C117.151 357.083 118.198 358.128 118.198 359.417C118.198 360.705 117.151 361.75 115.864 361.75Z" stroke="#0144B9" stroke-width="0.385417" stroke-miterlimit="10"/>
<path d="M113.963 360.771L113.151 361.521" stroke="#0144B9" stroke-width="0.385417" stroke-miterlimit="10"/>
<path d="M110.114 371.844C110.114 371.844 103.343 379.656 93.9685 380.698" stroke="#0061FE" stroke-width="0.385417" stroke-miterlimit="10"/>
<path d="M78.3434 367.677C78.3434 367.677 77.8226 374.969 81.4685 377.573" stroke="#F1D23C" stroke-width="0.385417" stroke-miterlimit="10"/>
<path d="M186.677 400.49C186.677 400.49 174.177 400.49 168.969 393.198" stroke="#F1D23C" stroke-width="0.385417" stroke-miterlimit="10"/>
<path d="M145.01 400.49C145.01 400.49 135.635 407.781 124.177 408.823" stroke="#EECFF8" stroke-width="0.385417" stroke-miterlimit="10"/>
<path d="M205.687 88.7708H285.375V136.167H205.687V88.7708Z" stroke="#DEF4FF" stroke-width="0.385417" stroke-miterlimit="10"/>
<path d="M210.375 83.0417H290.062V130.438H210.375V83.0417Z" fill="url(#paint16_radial_3_45)"/>
<path d="M198.135 71.3229C182.312 71.3229 169.489 58.4979 169.489 42.6771C169.489 26.8562 182.312 14.0312 198.135 14.0312C213.958 14.0312 226.781 26.8562 226.781 42.6771C226.781 58.4979 213.958 71.3229 198.135 71.3229Z" stroke="#0061FE" stroke-width="0.385417" stroke-miterlimit="10"/>
<path d="M191.885 71.3229C176.062 71.3229 163.239 58.4979 163.239 42.6771C163.239 26.8562 176.062 14.0312 191.885 14.0312C207.708 14.0312 220.531 26.8562 220.531 42.6771C220.531 58.4979 207.708 71.3229 191.885 71.3229Z" fill="#DEF4FF"/>
<path d="M202.562 65.8542H264.021V96.0625H202.562V65.8542Z" fill="#FFDE99"/>
<path d="M202.562 65.8542H264.021V96.0625H202.562V65.8542Z" fill="url(#paint17_radial_3_45)"/>
<path d="M233.552 81.2188L264.021 66.2448V96.0625H202.562V65.9844L233.552 81.2188Z" fill="url(#paint18_radial_3_45)"/>
<path d="M196.052 58.8229H257.51V89.0312H196.052V58.8229Z" fill="#FFDE99"/>
<path d="M227.041 74.1875L257.51 59.2135V89.0312H196.052V58.9531L227.041 74.1875Z" fill="url(#paint19_radial_3_45)"/>
<path d="M201.521 68.4583H188.5" stroke="#0061FE" stroke-width="0.385417" stroke-miterlimit="10"/>
<path d="M201.521 71.3229H188.5" stroke="#0061FE" stroke-width="0.385417" stroke-miterlimit="10"/>
<path d="M201.521 74.4479H188.5" stroke="#0061FE" stroke-width="0.385417" stroke-miterlimit="10"/>
<path d="M236.937 103.354H306.729V109.083H236.937V103.354Z" fill="url(#paint20_radial_3_45)"/>
<path d="M236.937 112.208H306.729V117.937H236.937V112.208Z" fill="url(#paint21_radial_3_45)"/>
<path d="M191.885 42.7135C188.432 42.7135 185.635 39.9151 185.635 36.4635C185.635 33.0119 188.432 30.2135 191.885 30.2135C195.338 30.2135 198.135 33.0119 198.135 36.4635C198.135 39.9151 195.338 42.7135 191.885 42.7135Z" fill="#0061FE"/>
<path d="M178.651 55.1406C180.599 49.4166 185.792 45.3177 191.885 45.3177C197.979 45.3177 203.172 49.4114 205.12 55.1406H178.651Z" fill="#0061FE"/>
<path d="M111.937 93.9792H161.937V82.5208L167.146 71.5833H161.937V60.125H111.937V93.9792Z" fill="#0061FE"/>
<path d="M139.542 65.3333H89.5415V53.875L84.3331 42.9375H89.5415V31.4791H139.542V65.3333Z" stroke="#0061FE" stroke-width="0.385417" stroke-miterlimit="10"/>
<path d="M135.635 36.9479C134.771 36.9479 134.073 36.2484 134.073 35.3854C134.073 34.5224 134.771 33.8229 135.635 33.8229C136.5 33.8229 137.198 34.5224 137.198 35.3854C137.198 36.2484 136.5 36.9479 135.635 36.9479Z" stroke="#0061FE" stroke-width="0.385417" stroke-miterlimit="10"/>
<path d="M137.458 80.9583C135.443 80.9583 133.812 79.326 133.812 77.3125C133.812 75.2989 135.443 73.6666 137.458 73.6666C139.474 73.6666 141.104 75.2989 141.104 77.3125C141.104 79.326 139.474 80.9583 137.458 80.9583Z" fill="white"/>
<path d="M149.958 80.9583C147.943 80.9583 146.312 79.326 146.312 77.3125C146.312 75.2989 147.943 73.6666 149.958 73.6666C151.974 73.6666 153.604 75.2989 153.604 77.3125C153.604 79.326 151.974 80.9583 149.958 80.9583Z" fill="white"/>
<path d="M124.958 80.9583C122.943 80.9583 121.312 79.326 121.312 77.3125C121.312 75.2989 122.943 73.6666 124.958 73.6666C126.974 73.6666 128.604 75.2989 128.604 77.3125C128.604 79.326 126.974 80.9583 124.958 80.9583Z" fill="white"/>
<path d="M139.213 119.646C144.073 116.823 150.083 116.865 154.906 119.76C159.724 122.651 165.734 122.698 170.599 119.875L170.984 119.651C175.844 116.828 181.854 116.87 186.677 119.766C191.495 122.656 197.505 122.703 202.37 119.88L202.755 119.656C207.614 116.833 213.625 116.875 218.448 119.771" stroke="#0061FE" stroke-width="0.385417" stroke-miterlimit="10"/>
<path d="M97.0935 17.1562C92.781 17.1562 89.281 13.6583 89.281 9.34375C89.281 5.02917 92.781 1.53125 97.0935 1.53125C101.406 1.53125 104.906 5.02917 104.906 9.34375C104.906 13.6583 101.406 17.1562 97.0935 17.1562Z" stroke="#FA404B" stroke-width="0.385417" stroke-miterlimit="10"/>
<path d="M117.146 96.5833H109.854V89.2916" stroke="#FA404B" stroke-width="0.385417" stroke-miterlimit="10"/>
<path d="M627.229 271.615C627.229 271.615 634.218 269.557 641.64 269.589C644.661 269.599 647.567 268.458 649.718 266.333C650.588 265.474 651.479 264.344 652.224 263.307C653.307 261.807 655.411 261.5 656.875 262.63C665.422 269.255 690.432 290.307 688.494 308.292C688.364 309.5 686.859 309.984 686.047 309.078C682.687 305.344 674.172 296.708 655.817 282.109C655.817 282.109 642.984 282.109 635.396 287.943C627.807 293.776 627.229 271.615 627.229 271.615Z" fill="#FFDE99"/>
<path d="M627.229 271.615C627.229 271.615 634.218 269.557 641.64 269.589C644.661 269.599 647.567 268.458 649.718 266.333C650.588 265.474 651.479 264.344 652.224 263.307C653.307 261.807 655.411 261.5 656.875 262.63C665.422 269.255 690.432 290.307 688.494 308.292C688.364 309.5 686.859 309.984 686.047 309.078C682.687 305.344 674.172 296.708 655.817 282.109C655.817 282.109 642.984 282.109 635.396 287.943C627.807 293.776 627.229 271.615 627.229 271.615Z" fill="url(#paint22_radial_3_45)"/>
<path d="M479.041 262.281C479.041 262.281 521.63 315.37 549.635 328.208C549.635 328.208 633.062 297.286 641.817 286.203C641.817 286.203 638.317 270.453 630.734 268.703C623.151 266.953 578.52 275.411 560.432 295.25C560.432 295.25 539.427 218.823 513.177 212.406C486.916 205.979 479.041 262.281 479.041 262.281Z" fill="#0144B9"/>
<path d="M479.041 262.281C479.041 262.281 521.63 315.37 549.635 328.208C549.635 328.208 633.062 297.286 641.817 286.203C641.817 286.203 638.317 270.453 630.734 268.703C623.151 266.953 578.52 275.411 560.432 295.25C560.432 295.25 539.427 218.823 513.177 212.406C486.916 205.979 479.041 262.281 479.041 262.281Z" fill="url(#paint23_radial_3_45)"/>
<path d="M356.525 408.135C356.525 408.135 347.193 416.885 343.109 423.885C341.776 426.167 340.943 427.891 340.422 429.182C338.427 434.115 332.609 436.359 327.932 433.828C326.062 432.818 296.984 418.323 284.943 398.76C284.396 397.875 285.245 396.588 286.203 396.989C294.687 400.552 303.453 403.474 315.109 408.135C328.984 413.687 336.698 402.302 343.698 393.552C350.693 384.797 356.525 408.135 356.525 408.135Z" fill="#FFDE99"/>
<path d="M356.525 408.135C356.525 408.135 347.193 416.885 343.109 423.885C341.776 426.167 340.943 427.891 340.422 429.182C338.427 434.115 332.609 436.359 327.932 433.828C326.062 432.818 296.984 418.323 284.943 398.76C284.396 397.875 285.245 396.588 286.203 396.989C294.687 400.552 303.453 403.474 315.109 408.135C328.984 413.687 336.698 402.302 343.698 393.552C350.693 384.797 356.525 408.135 356.525 408.135Z" fill="url(#paint24_radial_3_45)"/>
<path d="M465.041 202.771C465.041 202.771 406.698 298.453 385.114 325.286C363.526 352.125 339.609 393.547 339.609 393.547C339.609 393.547 354.776 414.552 358.864 412.802C362.947 411.052 361.781 410.469 362.364 406.969C362.947 403.469 444.041 318.292 458.047 294.953C472.047 271.615 476.13 269.865 476.13 269.865C476.13 269.865 525.718 252.948 528.052 220.276C530.385 187.604 500.63 185.854 500.63 185.854L465.041 202.771Z" fill="#0061FE"/>
<path d="M449.578 238.651L404.656 306.328" stroke="#DEF4FF" stroke-width="0.385417" stroke-miterlimit="10"/>
<path d="M404.364 339.292C426.536 325.292 431.203 305.453 449.869 277.448C458.552 264.422 469.255 255.818 478.218 250.333C490.703 242.698 496.781 227.875 493.109 213.708C491.166 206.208 488.75 198.734 486.573 192.531L500.625 185.849C500.625 185.849 501.875 185.922 503.838 186.318L504.125 186.432L519.75 194.37C524.958 199.432 528.958 207.484 528.047 220.271C525.713 252.943 476.125 269.859 476.125 269.859C476.125 269.859 472.041 271.609 458.041 294.948C444.041 318.286 362.942 403.464 362.359 406.964C361.776 410.464 362.942 411.047 358.859 412.797C356.901 413.635 352.385 409.234 348.218 404.427C359.041 388.865 386.817 350.375 404.364 339.292Z" fill="url(#paint25_radial_3_45)"/>
<path d="M404.364 339.292C426.536 325.292 431.203 305.453 449.869 277.448C468.536 249.443 496.541 241.859 496.541 241.859C498.364 229.464 491.776 207.365 486.573 192.531L500.625 185.849C500.625 185.849 501.875 185.922 503.838 186.318L504.125 186.432L519.75 194.37C524.958 199.432 528.958 207.484 528.047 220.271C525.713 252.943 476.125 269.859 476.125 269.859C476.125 269.859 472.041 271.609 458.041 294.948C444.041 318.286 362.942 403.464 362.359 406.964C361.776 410.464 362.942 411.047 358.859 412.797C356.901 413.635 352.385 409.234 348.218 404.427C359.041 388.865 386.817 350.375 404.364 339.292Z" fill="url(#paint26_radial_3_45)"/>
<path d="M308.541 203.573C308.541 203.573 285.349 201.604 281.849 202.771C281.849 202.771 281.265 201.021 285.932 198.687C290.599 196.354 299.349 197.521 299.349 197.521L310.432 198.104L308.541 203.573Z" fill="url(#paint27_radial_3_45)"/>
<path d="M423.031 194.604C423.031 194.604 424.198 197.521 420.115 199.854C416.031 202.188 386.276 210.354 340.771 206.854C340.771 206.854 316.849 202.771 313.349 203.938C313.349 203.938 300.516 189.354 298.766 189.354C297.016 189.354 305.182 186.438 314.516 197.521L330.849 200.438H350.687L358.271 198.104C358.271 198.104 388.026 191.104 407.276 176.516C426.536 161.932 423.031 194.604 423.031 194.604Z" fill="#FFDE99"/>
<path d="M423.031 194.604C423.031 194.604 424.198 197.521 420.115 199.854C416.031 202.188 386.276 210.354 340.771 206.854C340.771 206.854 316.849 202.771 313.349 203.938C313.349 203.938 300.516 189.354 298.766 189.354C297.016 189.354 305.182 186.438 314.516 197.521L330.849 200.438H350.687L358.271 198.104C358.271 198.104 388.026 191.104 407.276 176.516C426.536 161.932 423.031 194.604 423.031 194.604Z" fill="url(#paint28_radial_3_45)"/>
<path d="M416.614 112.927C416.614 112.927 409.031 161.349 410.198 167.766C410.198 167.766 406.114 166.016 404.948 167.766C403.781 169.516 404.948 172.432 404.948 172.432L402.031 176.516C402.031 176.516 420.114 197.521 423.036 197.521C424.995 197.521 428.005 193.312 429.776 190.547C430.51 189.396 430.64 187.943 430.031 186.724C429.713 186.088 429.453 185.224 429.453 184.104C429.453 181.187 436.453 170.104 437.62 136.266C438.786 102.422 416.614 112.927 416.614 112.927Z" fill="#F1D23C"/>
<path d="M416.614 112.927C416.614 112.927 409.031 161.349 410.198 167.766C410.198 167.766 406.114 166.016 404.948 167.766C403.781 169.516 404.948 172.432 404.948 172.432L402.031 176.516C402.031 176.516 420.114 197.521 423.036 197.521C424.995 197.521 428.005 193.312 429.776 190.547C430.51 189.396 430.64 187.943 430.031 186.724C429.713 186.088 429.453 185.224 429.453 184.104C429.453 181.187 436.453 170.104 437.62 136.266C438.786 102.422 416.614 112.927 416.614 112.927Z" fill="url(#paint29_radial_3_45)"/>
<path d="M421.281 117.01C421.281 117.01 438.474 171.234 445.786 185.854C449.87 194.021 458.036 202.771 458.036 202.771C466.786 204.521 488.375 194.021 488.375 194.021L465.036 138.594L421.281 117.01Z" fill="#FB8F8F"/>
<path d="M402.031 72.0885C402.031 72.0885 409.031 77.3385 417.781 98.3437L425.948 90.7604L431.781 82.0104L432.948 75.5937C432.948 75.5937 417.781 65.6771 419.531 50.5052C421.281 35.3333 392.114 52.25 402.031 72.0885Z" fill="#FFDE99"/>
<path d="M402.031 72.0885C402.031 72.0885 409.031 77.3385 417.781 98.3437L425.948 90.7604L431.781 82.0104L432.948 75.5937C432.948 75.5937 417.781 65.6771 419.531 50.5052C421.281 35.3333 392.114 52.25 402.031 72.0885Z" fill="url(#paint30_radial_3_45)"/>
<path d="M386.864 25.9948C386.864 25.9948 385.698 71.5 393.281 77.9166C393.281 77.9166 404.948 78.5 410.198 73.25C417.198 66.25 418.948 58.6666 418.948 58.6666V51.6666L429.448 47.5833L434.114 33L426.531 24.25L405.526 21.3333L392.109 21.9166L386.864 25.9948Z" fill="#FFDE99"/>
<path d="M386.864 25.9948C386.864 25.9948 385.698 71.5 393.281 77.9166C393.281 77.9166 404.948 78.5 410.198 73.25C417.198 66.25 418.948 58.6666 418.948 58.6666V51.6666L429.448 47.5833L434.114 33L426.531 24.25L405.526 21.3333L392.109 21.9166L386.864 25.9948Z" fill="url(#paint31_radial_3_45)"/>
<path d="M389.901 70.8593C388.422 65.177 387.635 57.1614 387.224 49.4739C391.51 44.9843 409.614 49.9218 409.614 49.9218V50.5051L413.114 66.2551L397.364 75.0051L389.901 70.8593Z" fill="url(#paint32_radial_3_45)"/>
<path d="M404.416 32.2604C404.01 30.5156 403.01 28.9427 401.541 27.9115C400.364 27.0886 399.052 26.6823 398.234 28.0365C396.484 30.9531 392.401 38.5365 384.234 35.0365C376.067 31.5365 381.317 19.8698 381.317 19.8698C381.317 19.8698 377.234 25.1198 378.984 28.6198C378.984 28.6198 370.817 21.0365 378.401 9.3646C385.984 -2.30727 396.484 16.3646 399.989 9.3646C403.494 2.3646 409.323 -1.71873 414.572 2.94794C419.822 7.61461 419.239 9.3646 419.239 9.3646C419.239 9.3646 418.072 4.69794 422.739 5.28127C427.406 5.8646 429.739 7.61461 435.572 5.86461C441.406 4.11461 454.244 7.03127 447.239 26.2865C440.239 45.5417 432.072 46.125 433.822 49.625C435.572 53.125 438.489 60.125 428.572 59.5417C418.656 58.9584 419.599 55.8802 419.599 55.8802L418.656 51.9584C418.656 51.9584 427.406 49.0417 422.156 42.0417C416.906 35.0417 413.989 42.0417 413.989 42.0417C413.989 42.0417 408.156 36.7917 405.823 29.7917C405.823 29.7917 408.156 39.125 411.073 41.4584C411.073 41.4584 406.093 39.4636 404.416 32.2604Z" fill="#241921"/>
<path d="M404.416 32.2604C404.01 30.5156 403.01 28.9427 401.541 27.9115C400.364 27.0886 399.052 26.6823 398.234 28.0365C396.484 30.9531 392.401 38.5365 384.234 35.0365C376.067 31.5365 381.317 19.8698 381.317 19.8698C381.317 19.8698 377.234 25.1198 378.984 28.6198C378.984 28.6198 370.817 21.0365 378.401 9.3646C385.984 -2.30727 396.484 16.3646 399.989 9.3646C403.494 2.3646 409.323 -1.71873 414.572 2.94794C419.822 7.61461 419.239 9.3646 419.239 9.3646C419.239 9.3646 418.072 4.69794 422.739 5.28127C427.406 5.8646 429.739 7.61461 435.572 5.86461C441.406 4.11461 454.244 7.03127 447.239 26.2865C440.239 45.5417 432.072 46.125 433.822 49.625C435.572 53.125 438.489 60.125 428.572 59.5417C418.656 58.9584 419.599 55.8802 419.599 55.8802L418.656 51.9584C418.656 51.9584 427.406 49.0417 422.156 42.0417C416.906 35.0417 413.989 42.0417 413.989 42.0417C413.989 42.0417 408.156 36.7917 405.823 29.7917C405.823 29.7917 408.156 39.125 411.073 41.4584C411.073 41.4584 406.093 39.4636 404.416 32.2604Z" fill="url(#paint33_radial_3_45)"/>
<path d="M414.864 88.4218C414.864 88.4218 423.614 84.3385 427.114 74.4219C430.614 64.5052 439.364 63.3385 439.364 63.3385C439.364 63.3385 441.698 62.7552 440.531 67.4219C439.364 72.0885 442.281 79.6719 453.364 81.4219C464.448 83.1719 536.791 96.5885 546.713 114.094C546.713 114.094 549.63 106.51 550.797 115.26V121.677C550.797 121.677 554.297 116.427 554.88 121.677C555.463 126.927 551.963 127.51 551.963 127.51L550.213 125.76C550.213 125.76 526.875 136.844 529.208 143.844C529.208 143.844 525.708 146.76 525.125 139.177C525.125 139.177 524.541 141.51 519.875 139.76L519.291 136.844C519.291 136.844 502.958 133.927 493.619 133.344C493.619 133.344 512.875 161.349 519.875 165.432C526.875 169.516 566.547 200.437 566.547 200.437L619.646 231.359C619.646 231.359 596.307 266.364 591.64 266.948L582.89 261.698C582.89 261.698 574.14 266.948 568.89 276.281C563.64 285.614 550.807 299.036 526.885 297.87C526.885 297.87 532.135 269.864 503.547 219.693C474.958 169.521 435.286 143.844 420.698 122.26C406.114 100.672 407.281 90.7552 407.281 90.7552L414.864 88.4218Z" fill="#F1D23C"/>
<path d="M414.864 88.4218C414.864 88.4218 423.614 84.3385 427.114 74.4219C430.614 64.5052 439.364 63.3385 439.364 63.3385C439.364 63.3385 441.698 62.7552 440.531 67.4219C439.364 72.0885 442.281 79.6719 453.364 81.4219C464.448 83.1719 536.791 96.5885 546.713 114.094C546.713 114.094 549.63 106.51 550.797 115.26V121.677C550.797 121.677 554.297 116.427 554.88 121.677C555.463 126.927 551.963 128.094 551.963 128.094L550.797 126.344C550.797 126.344 526.875 136.844 529.208 143.844C529.208 143.844 525.708 146.76 525.125 139.177C525.125 139.177 524.541 141.51 519.875 139.76L519.291 136.844C519.291 136.844 502.958 133.927 493.619 133.344C493.619 133.344 512.875 161.349 519.875 165.432C526.875 169.516 566.547 200.437 566.547 200.437L619.646 231.359C619.646 231.359 596.307 266.364 591.64 266.948L582.89 261.698C582.89 261.698 574.14 266.948 568.89 276.281C563.64 285.614 550.807 299.036 526.885 297.87C526.885 297.87 532.135 269.864 503.547 219.693C474.958 169.521 435.286 143.844 420.698 122.26C406.114 100.672 407.281 90.7552 407.281 90.7552L414.864 88.4218Z" fill="url(#paint34_radial_3_45)"/>
<path d="M407.281 90.7552L414.864 88.4218C414.864 88.4218 423.614 84.3385 427.114 74.4219C430.614 64.5052 439.364 63.3385 439.364 63.3385C439.364 63.3385 441.697 62.7552 440.531 67.4219C439.364 72.0885 442.281 79.6719 453.364 81.4219C455.932 81.8281 461.781 82.8593 469.374 84.4218C469.161 88.4739 468.869 92.526 468.473 96.5677C466.426 117.542 461.416 137.792 453.484 156.891C439.567 143.125 427.442 132.255 420.687 122.26C406.114 100.672 407.281 90.7552 407.281 90.7552Z" fill="url(#paint35_radial_3_45)"/>
<path d="M665.442 194.896C665.442 194.896 599.515 180.896 545.843 212.396C537.984 217.01 471.75 281.823 327.062 321.495C268.578 337.531 118.198 358.833 118.198 358.833" stroke="#0144B9" stroke-width="0.385417" stroke-miterlimit="10"/>
<path d="M529.213 144.427C529.213 144.427 552.281 181.677 557.083 193.682C557.083 193.682 549.047 198.104 547.297 200.437C545.547 202.771 542.047 211.521 536.213 213.854C536.213 213.854 540.297 217.354 543.213 215.021C546.13 212.687 546.13 212.687 546.13 212.687L543.213 216.187C543.213 216.187 546.713 220.854 549.047 220.271C551.38 219.687 550.797 220.854 553.713 220.271C556.63 219.687 558.38 217.937 558.38 217.937C558.38 217.937 558.38 219.687 560.13 219.104C561.479 218.656 567.312 212.125 569.932 208.594C570.744 207.5 571.015 206.094 570.672 204.776L567.713 193.432C567.713 193.432 564.213 146.177 550.797 126.339C550.802 126.344 525.13 134.51 529.213 144.427Z" fill="#FFDE99"/>
<path d="M529.213 144.427C529.213 144.427 552.281 181.677 557.083 193.682C557.083 193.682 549.047 198.104 547.297 200.437C545.547 202.771 542.047 211.521 536.213 213.854C536.213 213.854 540.297 217.354 543.213 215.021C546.13 212.687 546.13 212.687 546.13 212.687L543.213 216.187C543.213 216.187 546.713 220.854 549.047 220.271C551.38 219.687 550.797 220.854 553.713 220.271C556.63 219.687 558.38 217.937 558.38 217.937C558.38 217.937 558.38 219.687 560.13 219.104C561.479 218.656 567.312 212.125 569.932 208.594C570.744 207.5 571.015 206.094 570.672 204.776L567.713 193.432C567.713 193.432 564.213 146.177 550.797 126.339C550.802 126.344 525.13 134.51 529.213 144.427Z" fill="url(#paint36_radial_3_45)"/>
<path d="M269.266 200.594H405.453C406.547 200.594 407.432 199.708 407.432 198.615V198.141C407.432 197.047 406.547 196.161 405.453 196.161H269.266C268.172 196.161 267.287 197.047 267.287 198.141V198.615C267.287 199.703 268.172 200.594 269.266 200.594Z" fill="#241921"/>
<path d="M269.266 200.594H349.984C351.078 200.594 351.963 199.708 351.963 198.615V198.141C351.963 197.047 351.078 196.161 349.984 196.161H269.266C268.172 196.161 267.287 197.047 267.287 198.141V198.615C267.287 199.703 268.172 200.594 269.266 200.594Z" fill="#0061FE"/>
<path d="M248.156 126.635H327.614C328.687 126.635 329.635 127.323 329.968 128.338L350.89 191.787C351.422 193.391 350.224 195.047 348.536 195.047H269.078C268.005 195.047 267.057 194.359 266.724 193.344L245.802 129.896C245.271 128.286 246.468 126.635 248.156 126.635Z" fill="#0061FE"/>
<path d="M361.297 199.484H367.781C368.239 199.484 368.604 199.115 368.604 198.661V198.464C368.604 198.005 368.234 197.641 367.781 197.641H361.297C360.838 197.641 360.474 198.01 360.474 198.464V198.661C360.468 199.115 360.838 199.484 361.297 199.484Z" stroke="#0061FE" stroke-width="0.385417" stroke-miterlimit="10"/>
<path d="M272.734 199.667H279.219C279.677 199.667 280.042 199.297 280.042 198.844V198.646C280.042 198.188 279.672 197.823 279.219 197.823H272.734C272.276 197.823 271.911 198.193 271.911 198.646V198.844C271.906 199.297 272.276 199.667 272.734 199.667Z" stroke="#0061FE" stroke-width="0.385417" stroke-miterlimit="10"/>
<path d="M374.791 199.667H381.276C381.734 199.667 382.099 199.297 382.099 198.844V198.646C382.099 198.188 381.729 197.823 381.276 197.823H374.791C374.333 197.823 373.968 198.193 373.968 198.646V198.844C373.968 199.297 374.338 199.667 374.791 199.667Z" stroke="#0061FE" stroke-width="0.385417" stroke-miterlimit="10"/>
<path d="M356.302 199.667H356.5C356.958 199.667 357.323 199.297 357.323 198.844V198.646C357.323 198.188 356.953 197.823 356.5 197.823H356.302C355.844 197.823 355.479 198.193 355.479 198.646V198.844C355.479 199.297 355.849 199.667 356.302 199.667Z" stroke="#0061FE" stroke-width="0.385417" stroke-miterlimit="10"/>
<path d="M246.698 127.109C247.104 126.812 247.604 126.635 248.156 126.635H327.614C328.687 126.635 329.635 127.323 329.968 128.338L350.646 191.042L246.698 127.109Z" fill="url(#paint37_linear_3_45)"/>
<path d="M260.052 131.479L285.198 147.01" stroke="white" stroke-width="0.385417" stroke-miterlimit="10"/>
<path d="M316.854 204.521L303.234 202.969C303.234 202.969 294.364 192.729 289.859 191.042C289.859 191.042 292.937 188.188 299.937 194.021C306.937 199.854 306.354 199.271 306.354 199.271H313.937L316.854 204.521Z" fill="#FFDE99"/>
<path d="M316.854 204.521L303.234 202.969C303.234 202.969 294.364 192.729 289.859 191.042C289.859 191.042 292.937 188.188 299.937 194.021C306.937 199.854 306.354 199.271 306.354 199.271H313.937L316.854 204.521Z" fill="url(#paint38_radial_3_45)"/>
<path d="M314.521 197.521L330.854 200.437H330.963C333.969 200.437 336.943 201.016 339.76 202.062C344.755 203.922 353.729 205.76 355.49 207.615C350.792 207.49 345.885 207.245 340.776 206.854C340.776 206.854 319.187 205.104 313.354 203.937C313.354 203.937 300.521 189.354 298.771 189.354C297.021 189.354 305.182 186.437 314.521 197.521Z" fill="#FFDE99"/>
<path d="M582.89 261.698C582.89 261.698 591.057 254.698 591.64 259.365C592.224 264.031 590.474 266.365 591.64 266.948L582.89 261.698Z" fill="url(#paint39_radial_3_45)"/>
<path d="M590.495 257.76L590.458 257.807C588.047 257.281 582.896 261.698 582.896 261.698C582.896 261.698 574.146 266.948 568.896 276.281C567.844 278.156 566.474 280.193 564.781 282.25L528 212.693L590.495 257.76Z" fill="url(#paint40_radial_3_45)"/>
<path d="M543.218 216.188L545.65 213.271C545.65 213.271 549.635 209.771 549.635 206.271C549.635 203.401 561.405 209.943 569.504 209.172C566.723 212.792 561.416 218.682 560.14 219.109C558.39 219.693 558.39 217.943 558.39 217.943C558.39 217.943 556.64 219.693 553.723 220.276C550.807 220.859 551.39 219.693 549.057 220.276C546.718 220.859 543.218 216.188 543.218 216.188Z" fill="url(#paint41_radial_3_45)"/>
<path d="M415.155 93.3802C415.155 93.3802 416.322 113.219 450.796 144.594" stroke="white" stroke-width="0.385417" stroke-miterlimit="10"/>
<path d="M406.406 23.3698C406.406 23.3698 408.156 32.7031 415.156 37.3698" stroke="#0061FE" stroke-width="0.385417" stroke-miterlimit="10"/>
<path d="M410.489 25.7031C410.489 25.7031 413.406 33.2865 424.489 38.5365" stroke="#0061FE" stroke-width="0.385417" stroke-miterlimit="10"/>
<path d="M342.521 391.797C342.521 391.797 349.521 404.047 358.271 409.297" stroke="#DEF4FF" stroke-width="0.385417" stroke-miterlimit="10"/>
<path d="M638.021 285.906C638.021 285.906 636.547 276.094 629.989 271.375" stroke="#DEF4FF" stroke-width="0.385417" stroke-miterlimit="10"/>
<path d="M25.479 289.552C23.3228 289.552 21.5728 287.803 21.5728 285.646C21.5728 283.488 23.3228 281.74 25.479 281.74C27.6353 281.74 29.3853 283.488 29.3853 285.646C29.3853 287.803 27.6353 289.552 25.479 289.552Z" stroke="#0061FE" stroke-width="0.385417" stroke-miterlimit="10"/>
<path d="M703.597 133.231L708.626 134.584L707.273 139.613L702.244 138.26L703.597 133.231Z" stroke="#FA404B" stroke-width="0.385417" stroke-miterlimit="10"/>
<path d="M290.323 256.74C290.323 256.74 271.573 235.906 244.489 247.365" stroke="#FA404B" stroke-width="0.385417" stroke-miterlimit="10"/>
<path d="M661.156 332.781L669.489 345.281" stroke="#FA404B" stroke-width="0.385417" stroke-miterlimit="10"/>
<path d="M591.364 18.7188L583.552 24.4479" stroke="#FA404B" stroke-width="0.385417" stroke-miterlimit="10"/>
<path d="M92.229 209.375C86.1821 210.833 79.3487 208.031 76.0623 202.745C74.8591 200.807 74.1091 198.609 72.8956 196.672C70.656 193.104 66.807 190.589 62.6403 189.969" stroke="#0061FE" stroke-width="0.385417" stroke-miterlimit="10"/>
<defs>
<radialGradient id="paint0_radial_3_45" cx="0" cy="0" r="1" gradientUnits="userSpaceOnUse" gradientTransform="translate(425.172 39.2203) rotate(180) scale(525.813 525.812)">
<stop stop-color="#EECFF8"/>
<stop offset="0.9011" stop-color="white" stop-opacity="0"/>
</radialGradient>
<radialGradient id="paint1_radial_3_45" cx="0" cy="0" r="1" gradientUnits="userSpaceOnUse" gradientTransform="translate(63.3537 433.43) rotate(180) scale(67.2653 67.2652)">
<stop offset="0.3231" stop-color="#C184A8" stop-opacity="0.2102"/>
<stop offset="0.9171" stop-color="#0061FE"/>
</radialGradient>
<radialGradient id="paint2_radial_3_45" cx="0" cy="0" r="1" gradientUnits="userSpaceOnUse" gradientTransform="translate(68.8798 418.617) rotate(180) scale(28.5371 28.537)">
<stop offset="0.1043" stop-color="#FFDE99"/>
<stop offset="0.1056" stop-color="#FFDE99" stop-opacity="0.9985"/>
<stop offset="0.268" stop-color="#E9BD9E" stop-opacity="0.8173"/>
<stop offset="0.4348" stop-color="#D7A4A3" stop-opacity="0.6311"/>
<stop offset="0.6085" stop-color="#CB92A6" stop-opacity="0.4371"/>
<stop offset="0.7917" stop-color="#C387A7" stop-opacity="0.2326"/>
<stop offset="1" stop-color="#C184A8" stop-opacity="0"/>
</radialGradient>
<radialGradient id="paint3_radial_3_45" cx="0" cy="0" r="1" gradientUnits="userSpaceOnUse" gradientTransform="translate(164.094 450.895) rotate(180) scale(74.6933 74.6931)">
<stop offset="0.3231" stop-color="#C184A8" stop-opacity="0.2102"/>
<stop offset="0.9171" stop-color="#0061FE"/>
</radialGradient>
<radialGradient id="paint4_radial_3_45" cx="0" cy="0" r="1" gradientUnits="userSpaceOnUse" gradientTransform="translate(161.958 431.661) rotate(180) scale(48.3427 48.3426)">
<stop offset="0.1043" stop-color="#FFDE99"/>
<stop offset="0.1056" stop-color="#FFDE99" stop-opacity="0.9985"/>
<stop offset="0.268" stop-color="#E9BD9E" stop-opacity="0.8173"/>
<stop offset="0.4348" stop-color="#D7A4A3" stop-opacity="0.6311"/>
<stop offset="0.6085" stop-color="#CB92A6" stop-opacity="0.4371"/>
<stop offset="0.7917" stop-color="#C387A7" stop-opacity="0.2326"/>
<stop offset="1" stop-color="#C184A8" stop-opacity="0"/>
</radialGradient>
<radialGradient id="paint5_radial_3_45" cx="0" cy="0" r="1" gradientUnits="userSpaceOnUse" gradientTransform="translate(99.7237 346.875) rotate(180) scale(39.9153 39.9153)">
<stop offset="0.3231" stop-color="#C184A8" stop-opacity="0.2102"/>
<stop offset="0.9171" stop-color="#0061FE"/>
</radialGradient>
<radialGradient id="paint6_radial_3_45" cx="0" cy="0" r="1" gradientUnits="userSpaceOnUse" gradientTransform="translate(121.208 401.79) rotate(-167.214) scale(229.955 84.0189)">
<stop offset="0.3231" stop-color="#C184A8" stop-opacity="0.2102"/>
<stop offset="0.9171" stop-color="#0061FE"/>
</radialGradient>
<radialGradient id="paint7_radial_3_45" cx="0" cy="0" r="1" gradientUnits="userSpaceOnUse" gradientTransform="translate(201.312 429.229) rotate(180) scale(46.1853 46.1856)">
<stop offset="0.1043" stop-color="#FFDE99"/>
<stop offset="0.1056" stop-color="#FFDE99" stop-opacity="0.9985"/>
<stop offset="0.268" stop-color="#E9BD9E" stop-opacity="0.8173"/>
<stop offset="0.4348" stop-color="#D7A4A3" stop-opacity="0.6311"/>
<stop offset="0.6085" stop-color="#CB92A6" stop-opacity="0.4371"/>
<stop offset="0.7917" stop-color="#C387A7" stop-opacity="0.2326"/>
<stop offset="1" stop-color="#C184A8" stop-opacity="0"/>
</radialGradient>
<radialGradient id="paint8_radial_3_45" cx="0" cy="0" r="1" gradientUnits="userSpaceOnUse" gradientTransform="translate(98.0622 429.892) rotate(180) scale(28.9316 28.9318)">
<stop offset="0.1043" stop-color="#FFDE99"/>
<stop offset="0.1056" stop-color="#FFDE99" stop-opacity="0.9985"/>
<stop offset="0.268" stop-color="#E9BD9E" stop-opacity="0.8173"/>
<stop offset="0.4348" stop-color="#D7A4A3" stop-opacity="0.6311"/>
<stop offset="0.6085" stop-color="#CB92A6" stop-opacity="0.4371"/>
<stop offset="0.7917" stop-color="#C387A7" stop-opacity="0.2326"/>
<stop offset="1" stop-color="#C184A8" stop-opacity="0"/>
</radialGradient>
<radialGradient id="paint9_radial_3_45" cx="0" cy="0" r="1" gradientUnits="userSpaceOnUse" gradientTransform="translate(59.8595 374.264) rotate(-162.513) scale(66.8868 45.0223)">
<stop offset="0.1043" stop-color="#FFDE99"/>
<stop offset="0.1056" stop-color="#FFDE99" stop-opacity="0.9985"/>
<stop offset="0.268" stop-color="#E9BD9E" stop-opacity="0.8173"/>
<stop offset="0.4348" stop-color="#D7A4A3" stop-opacity="0.6311"/>
<stop offset="0.6085" stop-color="#CB92A6" stop-opacity="0.4371"/>
<stop offset="0.7917" stop-color="#C387A7" stop-opacity="0.2326"/>
<stop offset="1" stop-color="#C184A8" stop-opacity="0"/>
</radialGradient>
<radialGradient id="paint10_radial_3_45" cx="0" cy="0" r="1" gradientUnits="userSpaceOnUse" gradientTransform="translate(88.3384 385.454) rotate(180) scale(36.3964 36.3966)">
<stop stop-color="#0061FE"/>
<stop offset="0.0175" stop-color="#1B66F2"/>
<stop offset="0.0482" stop-color="#466EDF"/>
<stop offset="0.0825" stop-color="#6C75CE"/>
<stop offset="0.1196" stop-color="#8D7BBF"/>
<stop offset="0.1604" stop-color="#A980B3"/>
<stop offset="0.2062" stop-color="#C084A9"/>
<stop offset="0.2592" stop-color="#D187A1"/>
<stop offset="0.3238" stop-color="#DD899C"/>
<stop offset="0.4126" stop-color="#E48B99"/>
<stop offset="0.639" stop-color="#E68B98"/>
<stop offset="1" stop-color="#FB8F8F" stop-opacity="0"/>
</radialGradient>
<radialGradient id="paint11_radial_3_45" cx="0" cy="0" r="1" gradientUnits="userSpaceOnUse" gradientTransform="translate(69.4894 351.462) rotate(180) scale(9.76347 9.76332)">
<stop stop-color="#0144B9"/>
<stop offset="0.0286" stop-color="#0C47B7" stop-opacity="0.9606"/>
<stop offset="0.2403" stop-color="#5C5FAA" stop-opacity="0.6686"/>
<stop offset="0.3908" stop-color="#8E6EA1" stop-opacity="0.4611"/>
<stop offset="0.4648" stop-color="#A1749E" stop-opacity="0.3591"/>
<stop offset="0.4868" stop-color="#A7769D" stop-opacity="0.3443"/>
<stop offset="0.6368" stop-color="#CB8197" stop-opacity="0.2437"/>
<stop offset="0.7768" stop-color="#E68993" stop-opacity="0.1497"/>
<stop offset="0.9021" stop-color="#F58D90" stop-opacity="0.0657"/>
<stop offset="1" stop-color="#FB8F8F" stop-opacity="0"/>
</radialGradient>
<radialGradient id="paint12_radial_3_45" cx="0" cy="0" r="1" gradientUnits="userSpaceOnUse" gradientTransform="translate(28.0577 382.506) rotate(180) scale(29.8413 29.8425)">
<stop offset="0.3176" stop-color="#FB8F8F" stop-opacity="0"/>
<stop offset="0.3846" stop-color="#F58D90" stop-opacity="0.0982"/>
<stop offset="0.4703" stop-color="#E58993" stop-opacity="0.2238"/>
<stop offset="0.5662" stop-color="#CB8197" stop-opacity="0.3644"/>
<stop offset="0.6696" stop-color="#A6769D" stop-opacity="0.5158"/>
<stop offset="0.779" stop-color="#7768A5" stop-opacity="0.6762"/>
<stop offset="0.8915" stop-color="#3F57AF" stop-opacity="0.8411"/>
<stop offset="1" stop-color="#0144B9"/>
</radialGradient>
<radialGradient id="paint13_radial_3_45" cx="0" cy="0" r="1" gradientUnits="userSpaceOnUse" gradientTransform="translate(66.8903 363.899) rotate(180) scale(12.9532 12.9537)">
<stop offset="0.3176" stop-color="#FB8F8F" stop-opacity="0"/>
<stop offset="0.3846" stop-color="#F58D90" stop-opacity="0.0982"/>
<stop offset="0.4703" stop-color="#E58993" stop-opacity="0.2238"/>
<stop offset="0.5662" stop-color="#CB8197" stop-opacity="0.3644"/>
<stop offset="0.6696" stop-color="#A6769D" stop-opacity="0.5158"/>
<stop offset="0.779" stop-color="#7768A5" stop-opacity="0.6762"/>
<stop offset="0.8915" stop-color="#3F57AF" stop-opacity="0.8411"/>
<stop offset="1" stop-color="#0144B9"/>
</radialGradient>
<radialGradient id="paint14_radial_3_45" cx="0" cy="0" r="1" gradientUnits="userSpaceOnUse" gradientTransform="translate(70.7914 359.777) rotate(77.9117) scale(15.9175 8.40819)">
<stop offset="0.3176" stop-color="#FB8F8F" stop-opacity="0"/>
<stop offset="0.3846" stop-color="#F58D90" stop-opacity="0.0982"/>
<stop offset="0.4703" stop-color="#E58993" stop-opacity="0.2238"/>
<stop offset="0.5662" stop-color="#CB8197" stop-opacity="0.3644"/>
<stop offset="0.6696" stop-color="#A6769D" stop-opacity="0.5158"/>
<stop offset="0.779" stop-color="#7768A5" stop-opacity="0.6762"/>
<stop offset="0.8915" stop-color="#3F57AF" stop-opacity="0.8411"/>
<stop offset="1" stop-color="#0144B9"/>
</radialGradient>
<radialGradient id="paint15_radial_3_45" cx="0" cy="0" r="1" gradientUnits="userSpaceOnUse" gradientTransform="translate(149.797 427.755) rotate(180) scale(77.9321 77.9324)">
<stop offset="0.3231" stop-color="#C184A8" stop-opacity="0.2102"/>
<stop offset="0.9171" stop-color="#0061FE"/>
</radialGradient>
<radialGradient id="paint16_radial_3_45" cx="0" cy="0" r="1" gradientUnits="userSpaceOnUse" gradientTransform="translate(247.146 35.6677) rotate(180) scale(217.119 217.118)">
<stop stop-color="#0061FE"/>
<stop offset="0.0281" stop-color="#106CFE" stop-opacity="0.9719"/>
<stop offset="0.1219" stop-color="#408BFE" stop-opacity="0.8781"/>
<stop offset="0.2211" stop-color="#6AA7FE" stop-opacity="0.7789"/>
<stop offset="0.3241" stop-color="#8EBFFF" stop-opacity="0.6759"/>
<stop offset="0.4318" stop-color="#ABD2FF" stop-opacity="0.5682"/>
<stop offset="0.546" stop-color="#C2E1FF" stop-opacity="0.454"/>
<stop offset="0.6696" stop-color="#D2ECFF" stop-opacity="0.3304"/>
<stop offset="0.8094" stop-color="#DBF2FF" stop-opacity="0.1906"/>
<stop offset="1" stop-color="#DEF4FF" stop-opacity="0"/>
</radialGradient>
<radialGradient id="paint17_radial_3_45" cx="0" cy="0" r="1" gradientUnits="userSpaceOnUse" gradientTransform="translate(243.458 61.1995) rotate(180) scale(44.317 44.317)">
<stop stop-color="#FB8F8F"/>
<stop offset="1" stop-color="#F9C1DA" stop-opacity="0"/>
</radialGradient>
<radialGradient id="paint18_radial_3_45" cx="0" cy="0" r="1" gradientUnits="userSpaceOnUse" gradientTransform="translate(237.666 47.4609) rotate(180) scale(68.3546 68.3547)">
<stop stop-color="#FB8F8F"/>
<stop offset="1" stop-color="#F9C1DA" stop-opacity="0"/>
</radialGradient>
<radialGradient id="paint19_radial_3_45" cx="0" cy="0" r="1" gradientUnits="userSpaceOnUse" gradientTransform="translate(231.156 40.4297) rotate(180) scale(68.3547 68.3547)">
<stop stop-color="#FB8F8F"/>
<stop offset="1" stop-color="#F9C1DA" stop-opacity="0"/>
</radialGradient>
<radialGradient id="paint20_radial_3_45" cx="0" cy="0" r="1" gradientUnits="userSpaceOnUse" gradientTransform="translate(246.932 92.5042) rotate(180) scale(160.821 105.615)">
<stop stop-color="#0061FE"/>
<stop offset="0.0281" stop-color="#106CFE" stop-opacity="0.9719"/>
<stop offset="0.1219" stop-color="#408BFE" stop-opacity="0.8781"/>
<stop offset="0.2211" stop-color="#6AA7FE" stop-opacity="0.7789"/>
<stop offset="0.3241" stop-color="#8EBFFF" stop-opacity="0.6759"/>
<stop offset="0.4318" stop-color="#ABD2FF" stop-opacity="0.5682"/>
<stop offset="0.546" stop-color="#C2E1FF" stop-opacity="0.454"/>
<stop offset="0.6696" stop-color="#D2ECFF" stop-opacity="0.3304"/>
<stop offset="0.8094" stop-color="#DBF2FF" stop-opacity="0.1906"/>
<stop offset="1" stop-color="#DEF4FF" stop-opacity="0"/>
</radialGradient>
<radialGradient id="paint21_radial_3_45" cx="0" cy="0" r="1" gradientUnits="userSpaceOnUse" gradientTransform="translate(246.932 101.358) rotate(180) scale(160.821 105.615)">
<stop stop-color="#0061FE"/>
<stop offset="0.0281" stop-color="#106CFE" stop-opacity="0.9719"/>
<stop offset="0.1219" stop-color="#408BFE" stop-opacity="0.8781"/>
<stop offset="0.2211" stop-color="#6AA7FE" stop-opacity="0.7789"/>
<stop offset="0.3241" stop-color="#8EBFFF" stop-opacity="0.6759"/>
<stop offset="0.4318" stop-color="#ABD2FF" stop-opacity="0.5682"/>
<stop offset="0.546" stop-color="#C2E1FF" stop-opacity="0.454"/>
<stop offset="0.6696" stop-color="#D2ECFF" stop-opacity="0.3304"/>
<stop offset="0.8094" stop-color="#DBF2FF" stop-opacity="0.1906"/>
<stop offset="1" stop-color="#DEF4FF" stop-opacity="0"/>
</radialGradient>
<radialGradient id="paint22_radial_3_45" cx="0" cy="0" r="1" gradientUnits="userSpaceOnUse" gradientTransform="translate(650.627 246.319) rotate(180) scale(72.6193 72.6193)">
<stop stop-color="#FA404B"/>
<stop offset="0.025" stop-color="#FA484F" stop-opacity="0.975"/>
<stop offset="0.1916" stop-color="#FC7565" stop-opacity="0.8084"/>
<stop offset="0.3589" stop-color="#FD9B78" stop-opacity="0.6411"/>
<stop offset="0.5244" stop-color="#FEB886" stop-opacity="0.4756"/>
<stop offset="0.6876" stop-color="#FECD91" stop-opacity="0.3124"/>
<stop offset="0.8474" stop-color="#FFDA97" stop-opacity="0.1526"/>
<stop offset="1" stop-color="#FFDE99" stop-opacity="0"/>
</radialGradient>
<radialGradient id="paint23_radial_3_45" cx="0" cy="0" r="1" gradientUnits="userSpaceOnUse" gradientTransform="translate(536.696 224.505) rotate(180) scale(138.031 138.031)">
<stop offset="0.00534759" stop-color="#241921"/>
<stop offset="1" stop-color="#0061FE" stop-opacity="0"/>
</radialGradient>
<radialGradient id="paint24_radial_3_45" cx="0" cy="0" r="1" gradientUnits="userSpaceOnUse" gradientTransform="translate(359.386 415.522) rotate(180) scale(49.3127 49.3128)">
<stop stop-color="#FA404B"/>
<stop offset="0.025" stop-color="#FA484F" stop-opacity="0.975"/>
<stop offset="0.1916" stop-color="#FC7565" stop-opacity="0.8084"/>
<stop offset="0.3589" stop-color="#FD9B78" stop-opacity="0.6411"/>
<stop offset="0.5244" stop-color="#FEB886" stop-opacity="0.4756"/>
<stop offset="0.6876" stop-color="#FECD91" stop-opacity="0.3124"/>
<stop offset="0.8474" stop-color="#FFDA97" stop-opacity="0.1526"/>
<stop offset="1" stop-color="#FFDE99" stop-opacity="0"/>
</radialGradient>
<radialGradient id="paint25_radial_3_45" cx="0" cy="0" r="1" gradientUnits="userSpaceOnUse" gradientTransform="translate(599.925 162.159) rotate(180) scale(238.687 238.687)">
<stop offset="0.00534759" stop-color="#241921"/>
<stop offset="1" stop-color="#0061FE" stop-opacity="0"/>
</radialGradient>
<radialGradient id="paint26_radial_3_45" cx="0" cy="0" r="1" gradientUnits="userSpaceOnUse" gradientTransform="translate(439.418 437.188) rotate(180) scale(146.237 146.237)">
<stop offset="0.00534759" stop-color="#241921"/>
<stop offset="1" stop-color="#0061FE" stop-opacity="0"/>
</radialGradient>
<radialGradient id="paint27_radial_3_45" cx="0" cy="0" r="1" gradientUnits="userSpaceOnUse" gradientTransform="translate(311.187 195.101) rotate(180) scale(31.3221 31.3225)">
<stop stop-color="#FA404B"/>
<stop offset="0.025" stop-color="#FA484F"/>
<stop offset="0.1916" stop-color="#FC7565"/>
<stop offset="0.3589" stop-color="#FD9B78"/>
<stop offset="0.5244" stop-color="#FEB886"/>
<stop offset="0.6876" stop-color="#FECD91"/>
<stop offset="0.8474" stop-color="#FFDA97"/>
<stop offset="1" stop-color="#FFDE99"/>
</radialGradient>
<radialGradient id="paint28_radial_3_45" cx="0" cy="0" r="1" gradientUnits="userSpaceOnUse" gradientTransform="translate(367.222 198.325) rotate(175.394) scale(29.6892 14.3114)">
<stop stop-color="#FA404B"/>
<stop offset="0.025" stop-color="#FA484F" stop-opacity="0.975"/>
<stop offset="0.1916" stop-color="#FC7565" stop-opacity="0.8084"/>
<stop offset="0.3589" stop-color="#FD9B78" stop-opacity="0.6411"/>
<stop offset="0.5244" stop-color="#FEB886" stop-opacity="0.4756"/>
<stop offset="0.6876" stop-color="#FECD91" stop-opacity="0.3124"/>
<stop offset="0.8474" stop-color="#FFDA97" stop-opacity="0.1526"/>
<stop offset="1" stop-color="#FFDE99" stop-opacity="0"/>
</radialGradient>
<radialGradient id="paint29_radial_3_45" cx="0" cy="0" r="1" gradientUnits="userSpaceOnUse" gradientTransform="translate(446.493 115.29) rotate(180) scale(134.006 134.006)">
<stop stop-color="#FB8F8F"/>
<stop offset="1" stop-color="#F9C1DA" stop-opacity="0"/>
</radialGradient>
<radialGradient id="paint30_radial_3_45" cx="0" cy="0" r="1" gradientUnits="userSpaceOnUse" gradientTransform="translate(401.171 78.1474) rotate(180) scale(33.4021 33.402)">
<stop stop-color="#FA404B"/>
<stop offset="0.025" stop-color="#FA484F" stop-opacity="0.975"/>
<stop offset="0.1916" stop-color="#FC7565" stop-opacity="0.8084"/>
<stop offset="0.3589" stop-color="#FD9B78" stop-opacity="0.6411"/>
<stop offset="0.5244" stop-color="#FEB886" stop-opacity="0.4756"/>
<stop offset="0.6876" stop-color="#FECD91" stop-opacity="0.3124"/>
<stop offset="0.8474" stop-color="#FFDA97" stop-opacity="0.1526"/>
<stop offset="1" stop-color="#FFDE99" stop-opacity="0"/>
</radialGradient>
<radialGradient id="paint31_radial_3_45" cx="0" cy="0" r="1" gradientUnits="userSpaceOnUse" gradientTransform="translate(428.069 34.0781) rotate(180) scale(43.5285 43.5285)">
<stop stop-color="#FA404B"/>
<stop offset="0.025" stop-color="#FA484F" stop-opacity="0.975"/>
<stop offset="0.1916" stop-color="#FC7565" stop-opacity="0.8084"/>
<stop offset="0.3589" stop-color="#FD9B78" stop-opacity="0.6411"/>
<stop offset="0.5244" stop-color="#FEB886" stop-opacity="0.4756"/>
<stop offset="0.6876" stop-color="#FECD91" stop-opacity="0.3124"/>
<stop offset="0.8474" stop-color="#FFDA97" stop-opacity="0.1526"/>
<stop offset="1" stop-color="#FFDE99" stop-opacity="0"/>
</radialGradient>
<radialGradient id="paint32_radial_3_45" cx="0" cy="0" r="1" gradientUnits="userSpaceOnUse" gradientTransform="translate(390.043 39.3838) rotate(180) scale(32.4557 32.4558)">
<stop stop-color="#FA404B"/>
<stop offset="0.025" stop-color="#FA484F" stop-opacity="0.975"/>
<stop offset="0.1916" stop-color="#FC7565" stop-opacity="0.8084"/>
<stop offset="0.3589" stop-color="#FD9B78" stop-opacity="0.6411"/>
<stop offset="0.5244" stop-color="#FEB886" stop-opacity="0.4756"/>
<stop offset="0.6876" stop-color="#FECD91" stop-opacity="0.3124"/>
<stop offset="0.8474" stop-color="#FFDA97" stop-opacity="0.1526"/>
<stop offset="1" stop-color="#FFDE99" stop-opacity="0"/>
</radialGradient>
<radialGradient id="paint33_radial_3_45" cx="0" cy="0" r="1" gradientUnits="userSpaceOnUse" gradientTransform="translate(344.645 27.0031) rotate(180) scale(92.7546 92.7547)">
<stop stop-color="#0061FE"/>
<stop offset="0.9947" stop-color="#241921"/>
</radialGradient>
<radialGradient id="paint34_radial_3_45" cx="0" cy="0" r="1" gradientUnits="userSpaceOnUse" gradientTransform="translate(570.3 123.248) rotate(180) scale(159.292 159.292)">
<stop stop-color="#FB8F8F"/>
<stop offset="1" stop-color="#F9C1DA" stop-opacity="0"/>
</radialGradient>
<radialGradient id="paint35_radial_3_45" cx="0" cy="0" r="1" gradientUnits="userSpaceOnUse" gradientTransform="translate(400.065 87.875) rotate(180) scale(79.5473 79.5474)">
<stop stop-color="white"/>
<stop offset="1" stop-color="#F1D23C" stop-opacity="0"/>
</radialGradient>
<radialGradient id="paint36_radial_3_45" cx="0" cy="0" r="1" gradientUnits="userSpaceOnUse" gradientTransform="translate(574.279 115.142) rotate(180) scale(88.2338 88.2338)">
<stop stop-color="#FA404B"/>
<stop offset="0.025" stop-color="#FA484F" stop-opacity="0.975"/>
<stop offset="0.1916" stop-color="#FC7565" stop-opacity="0.8084"/>
<stop offset="0.3589" stop-color="#FD9B78" stop-opacity="0.6411"/>
<stop offset="0.5244" stop-color="#FEB886" stop-opacity="0.4756"/>
<stop offset="0.6876" stop-color="#FECD91" stop-opacity="0.3124"/>
<stop offset="0.8474" stop-color="#FFDA97" stop-opacity="0.1526"/>
<stop offset="1" stop-color="#FFDE99" stop-opacity="0"/>
</radialGradient>
<linearGradient id="paint37_linear_3_45" x1="278.594" y1="65.2083" x2="303.943" y2="183.709" gradientUnits="userSpaceOnUse">
<stop offset="0.1791" stop-color="#F9C1DA"/>
<stop offset="1" stop-color="#EECFF8" stop-opacity="0"/>
</linearGradient>
<radialGradient id="paint38_radial_3_45" cx="0" cy="0" r="1" gradientUnits="userSpaceOnUse" gradientTransform="translate(312.182 197.975) rotate(180) scale(12.4298 12.43)">
<stop stop-color="#FA404B"/>
<stop offset="0.025" stop-color="#FA484F" stop-opacity="0.975"/>
<stop offset="0.1916" stop-color="#FC7565" stop-opacity="0.8084"/>
<stop offset="0.3589" stop-color="#FD9B78" stop-opacity="0.6411"/>
<stop offset="0.5244" stop-color="#FEB886" stop-opacity="0.4756"/>
<stop offset="0.6876" stop-color="#FECD91" stop-opacity="0.3124"/>
<stop offset="0.8474" stop-color="#FFDA97" stop-opacity="0.1526"/>
<stop offset="1" stop-color="#FFDE99" stop-opacity="0"/>
</radialGradient>
<radialGradient id="paint39_radial_3_45" cx="0" cy="0" r="1" gradientUnits="userSpaceOnUse" gradientTransform="translate(593.963 258.175) rotate(180) scale(20.251 20.2505)">
<stop stop-color="#FB8F8F"/>
<stop offset="1" stop-color="#F9C1DA" stop-opacity="0"/>
</radialGradient>
<radialGradient id="paint40_radial_3_45" cx="0" cy="0" r="1" gradientUnits="userSpaceOnUse" gradientTransform="translate(587.987 246.392) rotate(180) scale(40.1625 40.1625)">
<stop stop-color="white"/>
<stop offset="1" stop-color="#F1D23C" stop-opacity="0"/>
</radialGradient>
<radialGradient id="paint41_radial_3_45" cx="0" cy="0" r="1" gradientUnits="userSpaceOnUse" gradientTransform="translate(563.667 204.902) rotate(180) scale(20.8653 20.8654)">
<stop stop-color="#FA404B"/>
<stop offset="0.025" stop-color="#FA484F" stop-opacity="0.975"/>
<stop offset="0.1916" stop-color="#FC7565" stop-opacity="0.8084"/>
<stop offset="0.3589" stop-color="#FD9B78" stop-opacity="0.6411"/>
<stop offset="0.5244" stop-color="#FEB886" stop-opacity="0.4756"/>
<stop offset="0.6876" stop-color="#FECD91" stop-opacity="0.3124"/>
<stop offset="0.8474" stop-color="#FFDA97" stop-opacity="0.1526"/>
<stop offset="1" stop-color="#FFDE99" stop-opacity="0"/>
</radialGradient>
</defs>
</svg>
