<svg width="104" height="33" viewBox="0 0 104 33" fill="none" xmlns="http://www.w3.org/2000/svg">
<path d="M53.016 21H50.28L43.032 12.936V21H40.8V4.2H43.032V11.784L50.04 4.2H52.776L45.36 12.36L53.016 21ZM56.8751 11.016C57.5631 9.528 58.8111 8.784 60.6191 8.784V10.968C59.5951 10.92 58.7151 11.192 57.9791 11.784C57.2431 12.376 56.8751 13.328 56.8751 14.64V21H54.7871V9H56.8751V11.016ZM63.4699 15.96C63.6779 17.032 64.1659 17.864 64.9339 18.456C65.7179 19.048 66.6779 19.344 67.8139 19.344C69.3979 19.344 70.5499 18.76 71.2699 17.592L73.0459 18.6C71.8779 20.408 70.1179 21.312 67.7659 21.312C65.8619 21.312 64.3099 20.72 63.1099 19.536C61.9259 18.336 61.3339 16.824 61.3339 15C61.3339 13.192 61.9179 11.688 63.0859 10.488C64.2539 9.288 65.7659 8.688 67.6219 8.688C69.3819 8.688 70.8139 9.312 71.9179 10.56C73.0379 11.792 73.5979 13.28 73.5979 15.024C73.5979 15.328 73.5739 15.64 73.5259 15.96H63.4699ZM67.6219 10.656C66.5019 10.656 65.5739 10.976 64.8379 11.616C64.1019 12.24 63.6459 13.08 63.4699 14.136H71.4859C71.3099 13 70.8619 12.136 70.1419 11.544C69.4219 10.952 68.5819 10.656 67.6219 10.656ZM77.4386 15.96C77.6466 17.032 78.1346 17.864 78.9026 18.456C79.6866 19.048 80.6466 19.344 81.7826 19.344C83.3666 19.344 84.5186 18.76 85.2386 17.592L87.0146 18.6C85.8466 20.408 84.0866 21.312 81.7346 21.312C79.8306 21.312 78.2786 20.72 77.0786 19.536C75.8946 18.336 75.3026 16.824 75.3026 15C75.3026 13.192 75.8866 11.688 77.0546 10.488C78.2226 9.288 79.7346 8.688 81.5906 8.688C83.3506 8.688 84.7826 9.312 85.8866 10.56C87.0066 11.792 87.5666 13.28 87.5666 15.024C87.5666 15.328 87.5426 15.64 87.4946 15.96H77.4386ZM81.5906 10.656C80.4706 10.656 79.5426 10.976 78.8066 11.616C78.0706 12.24 77.6146 13.08 77.4386 14.136H85.4546C85.2786 13 84.8306 12.136 84.1106 11.544C83.3906 10.952 82.5506 10.656 81.5906 10.656ZM99.8794 4.2H101.967V21H99.8794V18.936C98.8394 20.52 97.3274 21.312 95.3434 21.312C93.6634 21.312 92.2314 20.704 91.0474 19.488C89.8634 18.256 89.2714 16.76 89.2714 15C89.2714 13.24 89.8634 11.752 91.0474 10.536C92.2314 9.304 93.6634 8.688 95.3434 8.688C97.3274 8.688 98.8394 9.48 99.8794 11.064V4.2ZM95.6074 19.296C96.8234 19.296 97.8394 18.888 98.6554 18.072C99.4714 17.24 99.8794 16.216 99.8794 15C99.8794 13.784 99.4714 12.768 98.6554 11.952C97.8394 11.12 96.8234 10.704 95.6074 10.704C94.4074 10.704 93.3994 11.12 92.5834 11.952C91.7674 12.768 91.3594 13.784 91.3594 15C91.3594 16.216 91.7674 17.24 92.5834 18.072C93.3994 18.888 94.4074 19.296 95.6074 19.296Z" fill="#1E255E"/>
<rect y="3" width="30" height="30" rx="6" fill="#1E255E"/>
<path d="M9.70972 24.6781C9.15743 24.6781 8.70972 24.2304 8.70972 23.6781V12.2258C8.70972 11.6735 9.15743 11.2258 9.70972 11.2258H10.7614C11.3136 11.2258 11.7614 11.6735 11.7614 12.2258V23.6781C11.7614 24.2304 11.3136 24.6781 10.7614 24.6781H9.70972ZM12.7494 18.4557C12.6702 18.2417 12.6667 18.007 12.7393 17.7906L14.714 11.9076C14.8507 11.5003 15.2323 11.2258 15.662 11.2258H16.5648C17.2471 11.2258 17.729 11.894 17.5137 12.5414L15.7668 17.7949C15.6957 18.0086 15.6989 18.2401 15.7758 18.4519L17.5504 23.3367C17.7873 23.9888 17.3044 24.6781 16.6105 24.6781H15.7474C15.3289 24.6781 14.9547 24.4175 14.8095 24.0251L12.7494 18.4557Z" fill="white"/>
<path d="M19.0117 23.3329C19.0117 22.7564 19.293 22.3272 19.8558 22.0453C20.101 21.93 20.3608 21.8724 20.6349 21.8724C21.2842 21.8724 21.7603 22.1222 22.0633 22.6218C22.1932 22.8396 22.2581 23.0767 22.2581 23.3329C22.2581 23.9222 21.9695 24.345 21.3924 24.6013C21.1471 24.7166 20.8946 24.7742 20.6349 24.7742C19.9712 24.7742 19.495 24.518 19.2065 24.0055C19.0766 23.7877 19.0117 23.5635 19.0117 23.3329Z" fill="white"/>
</svg>
